<svg width="140" height="56" viewBox="0 0 140 56" fill="none" xmlns="http://www.w3.org/2000/svg">
<g clip-path="url(#clip0_1591_6280)">
<path d="M53.4294 27.424H38.9779C39.098 28.8947 39.6532 30.0652 40.6587 30.9506C41.6641 31.836 42.8947 32.2862 44.3653 32.2862C46.4663 32.2862 47.9519 31.4308 48.8223 29.72H53.0392C52.4689 31.4008 51.4335 32.7964 49.9328 33.8619C48.4321 34.9423 46.5713 35.4826 44.3503 35.4826C42.5495 35.4826 40.9288 35.0924 39.4882 34.2971C38.0625 33.5017 36.937 32.3912 36.1267 30.9656C35.3163 29.5399 34.9111 27.8742 34.9111 25.9834C34.9111 24.0925 35.3013 22.4418 36.0967 21.0012C36.892 19.5605 38.0025 18.465 39.4281 17.6847C40.8538 16.9043 42.5045 16.5142 44.3503 16.5142C46.1361 16.5142 47.7268 16.8893 49.1224 17.6397C50.5181 18.39 51.5985 19.4555 52.3789 20.8211C53.1592 22.1867 53.5494 23.7624 53.5494 25.5332C53.5644 26.2535 53.5194 26.8688 53.4294 27.424ZM49.4826 24.3626C49.4526 22.967 48.9424 21.8415 47.9369 21.0012C46.9315 20.1608 45.6859 19.7406 44.2003 19.7406C42.8497 19.7406 41.6941 20.1608 40.7337 20.9861C39.7733 21.8265 39.203 22.952 39.023 24.3626H49.4826Z" fill="#583D8A"/>
<path d="M60.5871 10.5266V35.1826H56.6704V10.5266H60.5871Z" fill="#583D8A"/>
<path d="M82.2419 27.424H67.7904C67.9105 28.8947 68.4657 30.0652 69.4712 30.9506C70.4766 31.836 71.7072 32.2862 73.1778 32.2862C75.2788 32.2862 76.7644 31.4308 77.6348 29.72H81.8517C81.2814 31.4008 80.246 32.7964 78.7453 33.8619C77.2446 34.9423 75.3838 35.4826 73.1628 35.4826C71.362 35.4826 69.7413 35.0924 68.3007 34.2971C66.875 33.5017 65.7495 32.3912 64.9392 30.9656C64.1288 29.5399 63.7236 27.8742 63.7236 25.9834C63.7236 24.0925 64.1138 22.4418 64.9092 21.0012C65.7045 19.5605 66.815 18.465 68.2406 17.6847C69.6663 16.9043 71.317 16.5142 73.1628 16.5142C74.9486 16.5142 76.5393 16.8893 77.9349 17.6397C79.3306 18.39 80.411 19.4555 81.1914 20.8211C81.9717 22.1867 82.3619 23.7624 82.3619 25.5332C82.3769 26.2535 82.3319 26.8688 82.2419 27.424ZM78.2951 24.3626C78.2651 22.967 77.7549 21.8415 76.7494 21.0012C75.744 20.1608 74.4984 19.7406 73.0128 19.7406C71.6622 19.7406 70.5066 20.1608 69.5462 20.9861C68.5858 21.8265 68.0155 22.952 67.8355 24.3626H78.2951Z" fill="#583D8A"/>
<path d="M92.2068 31.791L97.5642 16.8293H101.721L94.5179 35.1825H89.8508L82.6626 16.8293H86.8495L92.2068 31.791Z" fill="#583D8A"/>
<path d="M103.132 21.0315C103.927 19.6059 104.993 18.5104 106.358 17.7151C107.724 16.9197 109.225 16.5295 110.875 16.5295C112.361 16.5295 113.666 16.8147 114.777 17.3849C115.887 17.9552 116.773 18.6605 117.433 19.5009V16.8297H121.38V35.1828H117.433V32.4516C116.773 33.322 115.872 34.0423 114.717 34.6126C113.576 35.1828 112.271 35.483 110.8 35.483C109.18 35.483 107.694 35.0778 106.343 34.2674C104.993 33.4571 103.927 32.3316 103.132 30.8759C102.336 29.4203 101.946 27.7695 101.946 25.9237C101.946 24.0779 102.351 22.4422 103.132 21.0315ZM116.623 22.6973C116.083 21.7669 115.377 21.0465 114.507 20.5663C113.636 20.0711 112.706 19.831 111.686 19.831C110.68 19.831 109.735 20.0711 108.864 20.5513C107.994 21.0315 107.289 21.7218 106.748 22.6523C106.208 23.5677 105.938 24.6632 105.938 25.9387C105.938 27.2143 106.208 28.3098 106.748 29.2702C107.289 30.2306 107.994 30.9509 108.879 31.4462C109.765 31.9414 110.695 32.1965 111.671 32.1965C112.676 32.1965 113.621 31.9564 114.492 31.4612C115.362 30.966 116.068 30.2606 116.608 29.3152C117.148 28.3698 117.418 27.2593 117.418 25.9987C117.418 24.7382 117.163 23.6277 116.623 22.6973Z" fill="#583D8A"/>
<path d="M131.824 17.3099C132.77 16.7847 133.895 16.5295 135.201 16.5295V20.4613H134.21C132.68 20.4613 131.509 20.8365 130.729 21.5868C129.933 22.3371 129.543 23.6577 129.543 25.5185V35.1828H125.626V16.8297H129.543V19.5009C130.113 18.5554 130.879 17.8351 131.824 17.3099Z" fill="#583D8A"/>
<path d="M36.0217 40.7801C36.3069 40.2998 36.697 39.9097 37.1773 39.6396C37.6725 39.3694 38.1977 39.2344 38.783 39.2344C39.4433 39.2344 40.0435 39.3994 40.5688 39.7296C41.094 40.0597 41.4692 40.5249 41.6943 41.1252H40.4637C40.2986 40.7951 40.0735 40.555 39.7884 40.3899C39.5033 40.2248 39.1732 40.1498 38.783 40.1498C38.3628 40.1498 38.0026 40.2398 37.6725 40.4349C37.3423 40.615 37.0872 40.8851 36.9071 41.2303C36.7271 41.5754 36.637 41.9806 36.637 42.4458C36.637 42.911 36.7271 43.3162 36.9071 43.6613C37.0872 44.0065 37.3423 44.2766 37.6725 44.4717C38.0026 44.6668 38.3628 44.7568 38.783 44.7568C39.1581 44.7568 39.4883 44.6818 39.7884 44.5167C40.0735 44.3516 40.2986 44.1115 40.4637 43.7814H41.6943C41.4542 44.3817 41.079 44.8469 40.5688 45.162C40.0435 45.4922 39.4583 45.6422 38.783 45.6422C38.1977 45.6422 37.6575 45.5072 37.1773 45.237C36.697 44.9669 36.3069 44.5918 36.0217 44.0965C35.7366 43.6163 35.6016 43.0611 35.6016 42.4458C35.6016 41.8155 35.7366 41.2603 36.0217 40.7801Z" fill="#583D8A"/>
<path d="M43.78 45.327C43.4048 45.1169 43.1047 44.8168 42.8946 44.4266C42.6845 44.0365 42.5645 43.5863 42.5645 43.076C42.5645 42.5658 42.6695 42.1306 42.8946 41.7404C43.1197 41.3503 43.4198 41.0501 43.81 40.84C44.2002 40.6299 44.6204 40.5249 45.1006 40.5249C45.5808 40.5249 46.001 40.6299 46.3912 40.84C46.7813 41.0501 47.0815 41.3503 47.3066 41.7404C47.5317 42.1306 47.6367 42.5808 47.6367 43.076C47.6367 43.5863 47.5167 44.0215 47.2916 44.4116C47.0665 44.8018 46.7513 45.1019 46.3611 45.312C45.971 45.5221 45.5358 45.6272 45.0556 45.6272C44.5904 45.6572 44.1552 45.5371 43.78 45.327ZM45.7909 44.5767C46.016 44.4566 46.2111 44.2616 46.3611 44.0064C46.5112 43.7513 46.5712 43.4512 46.5712 43.091C46.5712 42.7309 46.4962 42.4307 46.3611 42.1756C46.2261 41.9205 46.046 41.7404 45.8059 41.6054C45.5808 41.4853 45.3257 41.4103 45.0706 41.4103C44.8004 41.4103 44.5603 41.4703 44.3352 41.6054C44.1101 41.7254 43.9301 41.9205 43.795 42.1756C43.6599 42.4307 43.5999 42.7309 43.5999 43.091C43.5999 43.6313 43.735 44.0365 44.0051 44.3216C44.2752 44.6067 44.6204 44.7568 45.0406 44.7568C45.3107 44.7568 45.5658 44.6968 45.7909 44.5767Z" fill="#583D8A"/>
<path d="M52.1992 40.7653C52.5143 40.9304 52.7544 41.1705 52.9195 41.4856C53.0996 41.8008 53.1746 42.1909 53.1746 42.6411V45.5674H52.1541V42.7912C52.1541 42.341 52.0491 42.0109 51.824 41.7707C51.5989 41.5306 51.2988 41.4106 50.9086 41.4106C50.5184 41.4106 50.2183 41.5306 49.9932 41.7707C49.7681 42.0109 49.663 42.356 49.663 42.7912V45.5674H48.6426V40.6152H49.663V41.1855C49.8281 40.9754 50.0532 40.8253 50.3083 40.7053C50.5634 40.5852 50.8486 40.5402 51.1487 40.5402C51.5389 40.5252 51.884 40.6152 52.1992 40.7653Z" fill="#583D8A"/>
<path d="M55.6803 41.4402V44.1864C55.6803 44.3665 55.7253 44.5015 55.8154 44.5916C55.9054 44.6666 56.0555 44.7116 56.2656 44.7116H56.8958V45.567H56.0855C55.6203 45.567 55.2751 45.462 55.02 45.2369C54.7799 45.0268 54.6448 44.6666 54.6448 44.1864V41.4402H54.0596V40.6148H54.6448V39.3843H55.6803V40.6148H56.8808V41.4552H55.6803V41.4402Z" fill="#583D8A"/>
<path d="M57.8865 39.7595C57.7664 39.6395 57.6914 39.4744 57.6914 39.2943C57.6914 39.1142 57.7514 38.9492 57.8865 38.8291C58.0065 38.7091 58.1716 38.634 58.3517 38.634C58.5318 38.634 58.6818 38.6941 58.8169 38.8291C58.937 38.9492 59.012 39.1142 59.012 39.2943C59.012 39.4744 58.952 39.6395 58.8169 39.7595C58.6818 39.8796 58.5318 39.9546 58.3517 39.9546C58.1716 39.9546 58.0216 39.8946 57.8865 39.7595ZM58.8619 40.6149V45.5671H57.8415V40.6149H58.8619Z" fill="#583D8A"/>
<path d="M63.2285 40.75C63.5287 40.9001 63.7538 41.0952 63.9189 41.3203V40.6149H64.9543V45.6572C64.9543 46.1074 64.8643 46.5276 64.6692 46.8727C64.4741 47.2329 64.204 47.503 63.8438 47.7131C63.4837 47.9232 63.0485 48.0132 62.5382 48.0132C61.8629 48.0132 61.3077 47.8482 60.8575 47.533C60.4073 47.2179 60.1672 46.7827 60.1072 46.2575H61.1276C61.2027 46.5126 61.3677 46.7227 61.6228 46.8877C61.8779 47.0528 62.1781 47.1278 62.5382 47.1278C62.9584 47.1278 63.2886 47.0078 63.5437 46.7527C63.7988 46.4976 63.9189 46.1374 63.9189 45.6572V44.8168C63.7388 45.0569 63.5137 45.252 63.2135 45.4021C62.9134 45.5671 62.5833 45.6422 62.1931 45.6422C61.7579 45.6422 61.3677 45.5371 61.0076 45.312C60.6474 45.0869 60.3623 44.7868 60.1672 44.3966C59.9721 44.0064 59.8521 43.5563 59.8521 43.061C59.8521 42.5658 59.9571 42.1156 60.1672 41.7404C60.3773 41.3503 60.6624 41.0651 61.0076 40.84C61.3677 40.6299 61.7579 40.5249 62.1931 40.5249C62.5983 40.5249 62.9434 40.5999 63.2285 40.75ZM63.7238 42.1906C63.5887 41.9355 63.3936 41.7404 63.1685 41.6204C62.9434 41.4853 62.6883 41.4253 62.4332 41.4253C62.1631 41.4253 61.923 41.4853 61.6979 41.6204C61.4728 41.7554 61.2777 41.9355 61.1426 42.1906C61.0076 42.4458 60.9325 42.7309 60.9325 43.076C60.9325 43.4212 61.0076 43.7213 61.1426 43.9764C61.2777 44.2315 61.4728 44.4266 61.6979 44.5617C61.923 44.6968 62.1781 44.7568 62.4332 44.7568C62.7033 44.7568 62.9434 44.6968 63.1685 44.5617C63.3936 44.4266 63.5737 44.2315 63.7238 43.9764C63.8588 43.7213 63.9339 43.4212 63.9339 43.076C63.9339 42.7459 63.8588 42.4458 63.7238 42.1906Z" fill="#583D8A"/>
<path d="M67.2058 45.327C66.8306 45.1169 66.5305 44.8168 66.3204 44.4266C66.1103 44.0365 65.9902 43.5863 65.9902 43.076C65.9902 42.5658 66.0953 42.1306 66.3204 41.7404C66.5455 41.3503 66.8456 41.0501 67.2358 40.84C67.626 40.6299 68.0461 40.5249 68.5264 40.5249C69.0066 40.5249 69.4268 40.6299 69.8169 40.84C70.2071 41.0501 70.5072 41.3503 70.7323 41.7404C70.9574 42.1306 71.0625 42.5808 71.0625 43.076C71.0625 43.5863 70.9424 44.0215 70.7173 44.4116C70.4922 44.8018 70.1771 45.1019 69.7869 45.312C69.3968 45.5221 68.9616 45.6272 68.4813 45.6272C68.0011 45.6572 67.5809 45.5371 67.2058 45.327ZM69.2167 44.5767C69.4418 44.4566 69.6369 44.2616 69.7869 44.0064C69.937 43.7513 69.997 43.4512 69.997 43.091C69.997 42.7309 69.922 42.4307 69.7869 42.1756C69.6519 41.9205 69.4718 41.7404 69.2317 41.6054C69.0066 41.4853 68.7515 41.4103 68.4963 41.4103C68.2262 41.4103 67.9861 41.4703 67.761 41.6054C67.5359 41.7254 67.3558 41.9205 67.2208 42.1756C67.0857 42.4307 67.0257 42.7309 67.0257 43.091C67.0257 43.6313 67.1608 44.0365 67.4309 44.3216C67.701 44.6067 68.0461 44.7568 68.4663 44.7568C68.7365 44.7568 68.9766 44.6968 69.2167 44.5767Z" fill="#583D8A"/>
<path d="M75.5189 41.7404C75.729 41.3503 76.0141 41.0651 76.3593 40.84C76.7044 40.6149 77.1096 40.5249 77.5448 40.5249C77.935 40.5249 78.2801 40.5999 78.5652 40.75C78.8504 40.9001 79.0905 41.0952 79.2706 41.3203V40.6149H80.306V45.5671H79.2706V44.8318C79.0905 45.0719 78.8654 45.267 78.5652 45.4171C78.2651 45.5671 77.92 45.6572 77.5448 45.6572C77.1246 45.6572 76.7344 45.5521 76.3743 45.327C76.0141 45.1019 75.744 44.8018 75.5339 44.4116C75.3238 44.0215 75.2188 43.5713 75.2188 43.076C75.2188 42.5808 75.3088 42.1306 75.5189 41.7404ZM79.0605 42.1906C78.9254 41.9355 78.7303 41.7404 78.5052 41.6204C78.2801 41.4853 78.025 41.4253 77.7699 41.4253C77.4998 41.4253 77.2597 41.4853 77.0346 41.6204C76.8095 41.7554 76.6144 41.9355 76.4793 42.1906C76.3442 42.4458 76.2692 42.7309 76.2692 43.076C76.2692 43.4212 76.3442 43.7213 76.4793 43.9764C76.6144 44.2315 76.8095 44.4266 77.0346 44.5617C77.2597 44.6968 77.5148 44.7568 77.7699 44.7568C78.04 44.7568 78.2801 44.6968 78.5052 44.5617C78.7303 44.4266 78.9254 44.2315 79.0605 43.9764C79.1955 43.7213 79.2706 43.4212 79.2706 43.076C79.2706 42.7459 79.1955 42.4458 79.0605 42.1906Z" fill="#583D8A"/>
<path d="M86.3541 41.4402V44.1864C86.3541 44.3665 86.3991 44.5015 86.4892 44.5916C86.5792 44.6816 86.7293 44.7116 86.9394 44.7116H87.5697V45.567H86.7593C86.2941 45.567 85.9489 45.462 85.6938 45.2369C85.4537 45.0268 85.3187 44.6666 85.3187 44.1864V41.4402H84.7334V40.6148H85.3187V39.3843H86.3541V40.6148H87.5546V41.4552H86.3541V41.4402Z" fill="#583D8A"/>
<path d="M89.385 45.327C89.0098 45.1169 88.7097 44.8168 88.4996 44.4266C88.2895 44.0365 88.1694 43.5863 88.1694 43.076C88.1694 42.5658 88.2745 42.1306 88.4996 41.7404C88.7247 41.3503 89.0248 41.0501 89.415 40.84C89.8052 40.6299 90.2253 40.5249 90.7056 40.5249C91.1858 40.5249 91.606 40.6299 91.9961 40.84C92.3863 41.0501 92.6864 41.3503 92.9115 41.7404C93.1366 42.1306 93.2417 42.5808 93.2417 43.076C93.2417 43.5863 93.1216 44.0215 92.8965 44.4116C92.6714 44.8018 92.3563 45.1019 91.9661 45.312C91.5759 45.5221 91.1407 45.6272 90.6605 45.6272C90.1803 45.6572 89.7601 45.5371 89.385 45.327ZM91.3959 44.5767C91.621 44.4566 91.8161 44.2616 91.9661 44.0064C92.1162 43.7513 92.1762 43.4512 92.1762 43.091C92.1762 42.7309 92.1012 42.4307 91.9661 42.1756C91.8311 41.9205 91.651 41.7404 91.4109 41.6054C91.1858 41.4853 90.9307 41.4103 90.6755 41.4103C90.4204 41.4103 90.1653 41.4703 89.9402 41.6054C89.7151 41.7254 89.535 41.9205 89.4 42.1756C89.2649 42.4307 89.2049 42.7309 89.2049 43.091C89.2049 43.6313 89.3399 44.0365 89.6101 44.3216C89.8802 44.6067 90.2253 44.7568 90.6455 44.7568C90.9157 44.7568 91.1708 44.6968 91.3959 44.5767Z" fill="#583D8A"/>
<path d="M94.2175 41.7403C94.4276 41.3501 94.7127 41.065 95.0578 40.8399C95.403 40.6148 95.8082 40.5248 96.2584 40.5248C96.5885 40.5248 96.9037 40.5998 97.2188 40.7349C97.534 40.8699 97.7891 41.065 97.9691 41.3051V38.9041H99.0046V45.567H97.9691V44.8167C97.8041 45.0568 97.564 45.2519 97.2638 45.4169C96.9637 45.567 96.6185 45.6571 96.2434 45.6571C95.8082 45.6571 95.418 45.552 95.0578 45.3269C94.6977 45.1018 94.4126 44.8017 94.2175 44.4115C94.0224 44.0213 93.9023 43.5711 93.9023 43.0759C93.9023 42.5807 94.0074 42.1305 94.2175 41.7403ZM97.759 42.1905C97.624 41.9354 97.4289 41.7403 97.2038 41.6203C96.9787 41.4852 96.7236 41.4252 96.4685 41.4252C96.1984 41.4252 95.9582 41.4852 95.7331 41.6203C95.508 41.7553 95.313 41.9354 95.1779 42.1905C95.0429 42.4456 94.9678 42.7307 94.9678 43.0759C94.9678 43.4211 95.0429 43.7212 95.1779 43.9763C95.313 44.2314 95.508 44.4265 95.7331 44.5616C95.9582 44.6966 96.2134 44.7567 96.4685 44.7567C96.7386 44.7567 96.9787 44.6966 97.2038 44.5616C97.4289 44.4265 97.624 44.2314 97.759 43.9763C97.8941 43.7212 97.9691 43.4211 97.9691 43.0759C97.9691 42.7458 97.8941 42.4456 97.759 42.1905Z" fill="#583D8A"/>
<path d="M100.326 41.7404C100.536 41.3503 100.821 41.0651 101.166 40.84C101.511 40.6149 101.916 40.5249 102.351 40.5249C102.742 40.5249 103.087 40.5999 103.372 40.75C103.657 40.9001 103.897 41.0952 104.077 41.3203V40.6149H105.113V45.5671H104.077V44.8318C103.897 45.0719 103.672 45.267 103.372 45.4171C103.072 45.5671 102.727 45.6572 102.351 45.6572C101.931 45.6572 101.541 45.5521 101.181 45.327C100.821 45.1019 100.551 44.8018 100.341 44.4116C100.13 44.0215 100.025 43.5713 100.025 43.076C100.025 42.5808 100.115 42.1306 100.326 41.7404ZM103.852 42.1906C103.717 41.9355 103.522 41.7404 103.297 41.6204C103.072 41.4853 102.817 41.4253 102.562 41.4253C102.291 41.4253 102.051 41.4853 101.826 41.6204C101.601 41.7554 101.406 41.9355 101.271 42.1906C101.136 42.4458 101.061 42.7309 101.061 43.076C101.061 43.4212 101.136 43.7213 101.271 43.9764C101.406 44.2315 101.601 44.4266 101.826 44.5617C102.051 44.6968 102.306 44.7568 102.562 44.7568C102.832 44.7568 103.072 44.6968 103.297 44.5617C103.522 44.4266 103.717 44.2315 103.852 43.9764C103.987 43.7213 104.062 43.4212 104.062 43.076C104.062 42.7459 104.002 42.4458 103.852 42.1906Z" fill="#583D8A"/>
<path d="M113.531 40.7649C113.831 40.93 114.056 41.1701 114.236 41.4852C114.401 41.8003 114.491 42.1905 114.491 42.6407V45.567H113.471V42.7908C113.471 42.3406 113.366 42.0104 113.141 41.7703C112.916 41.5302 112.616 41.4102 112.225 41.4102C111.835 41.4102 111.535 41.5302 111.31 41.7703C111.085 42.0104 110.98 42.3556 110.98 42.7908V45.567H109.959V38.9041H110.98V41.1851C111.16 40.975 111.37 40.8099 111.64 40.7049C111.91 40.5848 112.195 40.5398 112.511 40.5398C112.886 40.5248 113.231 40.6148 113.531 40.7649Z" fill="#583D8A"/>
<path d="M116.668 45.327C116.293 45.1169 115.992 44.8168 115.782 44.4266C115.572 44.0365 115.452 43.5863 115.452 43.076C115.452 42.5658 115.557 42.1306 115.782 41.7404C116.007 41.3503 116.308 41.0501 116.698 40.84C117.088 40.6299 117.508 40.5249 117.988 40.5249C118.468 40.5249 118.889 40.6299 119.279 40.84C119.669 41.0501 119.969 41.3503 120.194 41.7404C120.419 42.1306 120.524 42.5808 120.524 43.076C120.524 43.5863 120.404 44.0215 120.179 44.4116C119.954 44.8018 119.639 45.1019 119.249 45.312C118.859 45.5221 118.423 45.6272 117.943 45.6272C117.478 45.6572 117.043 45.5371 116.668 45.327ZM118.679 44.5767C118.904 44.4566 119.099 44.2616 119.249 44.0064C119.399 43.7513 119.459 43.4512 119.459 43.091C119.459 42.7309 119.384 42.4307 119.249 42.1756C119.114 41.9205 118.934 41.7404 118.694 41.6054C118.468 41.4853 118.213 41.4103 117.958 41.4103C117.703 41.4103 117.448 41.4703 117.223 41.6054C116.998 41.7254 116.818 41.9205 116.683 42.1756C116.548 42.4307 116.488 42.7309 116.488 43.091C116.488 43.6313 116.623 44.0365 116.893 44.3216C117.163 44.6067 117.508 44.7568 117.928 44.7568C118.198 44.7568 118.453 44.6968 118.679 44.5767Z" fill="#583D8A"/>
<path d="M123.166 40.735C123.421 40.5999 123.706 40.5249 124.051 40.5249V41.5904H123.796C123.391 41.5904 123.091 41.6954 122.881 41.8905C122.67 42.1006 122.565 42.4458 122.565 42.956V45.5671H121.545V40.6149H122.565V41.3353C122.715 41.0802 122.911 40.8851 123.166 40.735Z" fill="#583D8A"/>
<path d="M124.967 41.7404C125.177 41.3503 125.462 41.0651 125.807 40.84C126.152 40.6149 126.557 40.5249 126.993 40.5249C127.383 40.5249 127.728 40.5999 128.013 40.75C128.298 40.9001 128.538 41.0952 128.718 41.3203V40.6149H129.754V45.5671H128.718V44.8318C128.538 45.0719 128.313 45.267 128.013 45.4171C127.713 45.5671 127.368 45.6572 126.993 45.6572C126.572 45.6572 126.182 45.5521 125.822 45.327C125.462 45.1019 125.192 44.8018 124.982 44.4116C124.772 44.0215 124.667 43.5713 124.667 43.076C124.667 42.5808 124.757 42.1306 124.967 41.7404ZM128.493 42.1906C128.358 41.9355 128.163 41.7404 127.938 41.6204C127.713 41.4853 127.458 41.4253 127.203 41.4253C126.933 41.4253 126.692 41.4853 126.467 41.6204C126.242 41.7554 126.047 41.9355 125.912 42.1906C125.777 42.4458 125.702 42.7309 125.702 43.076C125.702 43.4212 125.777 43.7213 125.912 43.9764C126.047 44.2315 126.242 44.4266 126.467 44.5617C126.692 44.6968 126.948 44.7568 127.203 44.7568C127.473 44.7568 127.713 44.6968 127.938 44.5617C128.163 44.4266 128.358 44.2315 128.493 43.9764C128.628 43.7213 128.703 43.4212 128.703 43.076C128.703 42.7459 128.643 42.4458 128.493 42.1906Z" fill="#583D8A"/>
<path d="M21.5403 13.8129C17.1133 13.8129 14.5922 17.1593 14.127 20.806C12.0111 21.4062 10.4504 23.3421 10.4504 25.6531C10.4504 28.4294 12.7164 30.6954 15.4926 30.6954C18.2689 30.6954 20.5349 28.4294 20.5349 25.6531C20.5349 23.4171 19.0642 21.5113 17.0383 20.851C17.4885 17.9997 19.5294 16.6941 21.5553 16.6941C22.8159 16.6941 24.0314 17.1894 24.9018 18.0597C25.9373 19.0802 26.4775 20.5659 26.4775 22.3517C26.4775 27.544 20.94 32.5412 17.1884 34.297C16.0179 34.8372 14.6973 34.8222 13.5568 34.2519C9.8051 32.3761 4.50774 27.4539 4.50774 22.3517C4.50774 20.0106 5.46817 18.1948 7.20894 17.2344C8.79965 16.349 10.7805 16.364 12.2512 17.2794C12.9265 17.6996 13.8119 17.5045 14.2471 16.8142C14.6673 16.1389 14.4572 15.2535 13.7819 14.8183C11.4408 13.3627 8.31944 13.3026 5.81332 14.6983C3.15714 16.1689 1.62646 18.9601 1.62646 22.3366C1.62646 29.0146 8.15436 34.7622 12.2662 36.8181C13.2566 37.3133 14.3371 37.5684 15.4176 37.5684C16.438 37.5684 17.4585 37.3433 18.4189 36.8931C22.9659 34.7772 29.3738 28.8495 29.3738 22.3366C29.3438 16.7392 25.427 13.8129 21.5403 13.8129ZM15.4776 27.7991C14.2921 27.7991 13.3317 26.8386 13.3317 25.6531C13.3317 24.4676 14.2921 23.5072 15.4776 23.5072C16.6631 23.5072 17.6236 24.4676 17.6236 25.6531C17.6386 26.8236 16.6631 27.7991 15.4776 27.7991Z" fill="#583D8A"/>
</g>
<defs>
<clipPath id="clip0_1591_6280">
<rect width="140" height="56" fill="white"/>
</clipPath>
</defs>
</svg>
